<svg width="30" height="30" viewBox="0 0 30 30" fill="none" xmlns="http://www.w3.org/2000/svg">
<path d="M22 13C22 9.13401 18.866 6 15 6C11.134 6 8 9.13401 8 13" stroke="#1A1F23" stroke-width="2"/>
<path d="M6 16C6 17.402 6.96076 18.577 8.25835 18.9074C9.33301 19.181 10 18.2356 10 17.5V14.5C10 13.7645 9.33301 12.819 8.25835 13.0926C6.96076 13.423 6 14.598 6 16Z" stroke="#1A1F23" stroke-width="2"/>
<path d="M24 16C24 14.598 23.0392 13.423 21.7417 13.0926C20.667 12.819 20 13.7644 20 14.5L20 17.5C20 18.2355 20.667 19.181 21.7417 18.9074C23.0392 18.577 24 17.402 24 16Z" stroke="#1A1F23" stroke-width="2"/>
<path d="M21 19V22C21 22.5523 20.5523 23 20 23H14" stroke="#1A1F23" stroke-width="2" stroke-linecap="round"/>
</svg>
