<svg width="30" height="30" viewBox="0 0 30 30" fill="none" xmlns="http://www.w3.org/2000/svg">
<path d="M22.2782 17.4617L21.6387 18.2305L22.2782 17.4617ZM9.33331 12.6667C9.33331 9.53705 11.8704 7 15 7V5C10.7658 5 7.33331 8.43248 7.33331 12.6667H9.33331ZM9.33331 16.4066V12.6667H7.33331V16.4066H9.33331ZM8 19C8 18.6911 8.13888 18.4155 8.3613 18.2305L7.08231 16.6929C6.42266 17.2416 6 18.0719 6 19H8ZM9 20C8.44772 20 8 19.5523 8 19H6C6 20.6569 7.34315 22 9 22V20ZM21 20H9V22H21V20ZM22 19C22 19.5523 21.5523 20 21 20V22C22.6569 22 24 20.6569 24 19H22ZM21.6387 18.2305C21.8611 18.4155 22 18.6911 22 19H24C24 18.0719 23.5773 17.2416 22.9177 16.6929L21.6387 18.2305ZM20.6666 12.6667V16.4066H22.6666V12.6667H20.6666ZM15 7C18.1296 7 20.6666 9.53705 20.6666 12.6667H22.6666C22.6666 8.43249 19.2342 5 15 5V7ZM22.9177 16.6929C22.8064 16.6003 22.7343 16.5183 22.6948 16.456C22.6581 16.3982 22.6666 16.3855 22.6666 16.4066H20.6666C20.6666 17.2883 21.2466 17.9043 21.6387 18.2305L22.9177 16.6929ZM7.33331 16.4066C7.33331 16.3856 7.34183 16.3982 7.30516 16.456C7.26566 16.5183 7.19358 16.6003 7.08231 16.6929L8.3613 18.2305C8.75336 17.9044 9.33331 17.2883 9.33331 16.4066H7.33331Z" fill="#1A1F23"/>
<path d="M18 22C18 23.1046 16.6569 24 15 24C13.3431 24 12 23.1046 12 22" stroke="#1A1F23" stroke-width="2"/>
</svg>
