<svg width="201" height="24" viewBox="0 0 201 24" fill="none" xmlns="http://www.w3.org/2000/svg">
<path d="M35.1777 18V5.27344H39.5723C40.832 5.27344 41.9189 5.52832 42.833 6.03809C43.7471 6.54199 44.4473 7.27148 44.9336 8.22656C45.4258 9.17578 45.6719 10.3066 45.6719 11.6191C45.6719 12.9375 45.4258 14.0771 44.9336 15.0381C44.4414 15.9932 43.7324 16.7256 42.8066 17.2354C41.8809 17.7451 40.7793 18 39.502 18H35.1777ZM39.3789 16.0137C42.0508 16.0254 43.3867 14.5605 43.3867 11.6191C43.3867 10.166 43.0557 9.07617 42.3936 8.34961C41.7314 7.61719 40.75 7.25391 39.4492 7.25977H37.4629V16.0137H39.3789ZM51.2242 18.1934C50.275 18.1934 49.4518 17.9941 48.7545 17.5957C48.0572 17.1914 47.5211 16.6201 47.1461 15.8818C46.7711 15.1436 46.5836 14.2793 46.5836 13.2891C46.5836 12.3105 46.7711 11.4492 47.1461 10.7051C47.5211 9.95508 48.0484 9.37207 48.7281 8.95605C49.4137 8.54004 50.2047 8.33203 51.1012 8.33203C51.9098 8.33203 52.6422 8.50781 53.2984 8.85938C53.9605 9.20508 54.485 9.73828 54.8717 10.459C55.2643 11.1797 55.4605 12.0762 55.4605 13.1484V13.8516H48.7984C48.8102 14.3848 48.9156 14.8477 49.1148 15.2402C49.3199 15.627 49.6012 15.9229 49.9586 16.1279C50.3219 16.333 50.7437 16.4355 51.2242 16.4355C51.7047 16.4355 52.1119 16.3477 52.4459 16.1719C52.7799 15.9902 53.023 15.75 53.1754 15.4512H55.3727C55.2379 16.002 54.983 16.4854 54.608 16.9014C54.233 17.3115 53.7555 17.6309 53.1754 17.8594C52.6012 18.082 51.9508 18.1934 51.2242 18.1934ZM53.316 12.3223C53.316 11.8945 53.2223 11.5107 53.0348 11.1709C52.8531 10.8252 52.5953 10.5557 52.2613 10.3623C51.9332 10.1689 51.5582 10.0723 51.1363 10.0723C50.7027 10.0723 50.3131 10.1748 49.9674 10.3799C49.6217 10.5791 49.3492 10.8516 49.15 11.1973C48.9508 11.543 48.8365 11.918 48.8072 12.3223H53.316ZM61.4348 18H58.9738L55.5637 8.45508H57.9543L60.1516 15.5566H60.257L62.4719 8.45508H64.8449L61.4348 18ZM69.5535 18.1934C68.6043 18.1934 67.7811 17.9941 67.0838 17.5957C66.3865 17.1914 65.8504 16.6201 65.4754 15.8818C65.1004 15.1436 64.9129 14.2793 64.9129 13.2891C64.9129 12.3105 65.1004 11.4492 65.4754 10.7051C65.8504 9.95508 66.3777 9.37207 67.0574 8.95605C67.743 8.54004 68.534 8.33203 69.4305 8.33203C70.2391 8.33203 70.9715 8.50781 71.6277 8.85938C72.2898 9.20508 72.8143 9.73828 73.201 10.459C73.5936 11.1797 73.7898 12.0762 73.7898 13.1484V13.8516H67.1277C67.1395 14.3848 67.2449 14.8477 67.4441 15.2402C67.6492 15.627 67.9305 15.9229 68.2879 16.1279C68.6512 16.333 69.073 16.4355 69.5535 16.4355C70.034 16.4355 70.4412 16.3477 70.7752 16.1719C71.1092 15.9902 71.3523 15.75 71.5047 15.4512H73.702C73.5672 16.002 73.3123 16.4854 72.9373 16.9014C72.5623 17.3115 72.0848 17.6309 71.5047 17.8594C70.9305 18.082 70.2801 18.1934 69.5535 18.1934ZM71.6453 12.3223C71.6453 11.8945 71.5516 11.5107 71.3641 11.1709C71.1824 10.8252 70.9246 10.5557 70.5906 10.3623C70.2625 10.1689 69.8875 10.0723 69.4656 10.0723C69.032 10.0723 68.6424 10.1748 68.2967 10.3799C67.951 10.5791 67.6785 10.8516 67.4793 11.1973C67.2801 11.543 67.1658 11.918 67.1365 12.3223H71.6453ZM77.1801 18H74.9301V5.27344H77.1801V18ZM82.8906 18.1934C81.9707 18.1934 81.165 17.9883 80.4736 17.5781C79.7881 17.168 79.2578 16.5908 78.8828 15.8467C78.5078 15.1025 78.3203 14.2441 78.3203 13.2715C78.3203 12.2871 78.5078 11.4229 78.8828 10.6787C79.2578 9.93457 79.7881 9.35742 80.4736 8.94727C81.165 8.53711 81.9707 8.33203 82.8906 8.33203C83.8105 8.33203 84.6162 8.53711 85.3076 8.94727C85.999 9.35742 86.5293 9.93457 86.8984 10.6787C87.2734 11.4229 87.4609 12.2871 87.4609 13.2715C87.4609 14.2441 87.2734 15.1025 86.8984 15.8467C86.5293 16.5908 85.999 17.168 85.3076 17.5781C84.6162 17.9883 83.8105 18.1934 82.8906 18.1934ZM80.5879 13.2539C80.5879 13.8516 80.6729 14.3877 80.8428 14.8623C81.0186 15.3369 81.2793 15.7119 81.625 15.9873C81.9766 16.2627 82.4043 16.4004 82.9082 16.4004C83.4004 16.4004 83.8193 16.2627 84.165 15.9873C84.5107 15.7119 84.7686 15.3369 84.9385 14.8623C85.1143 14.3877 85.1992 13.8516 85.1934 13.2539C85.1992 12.6562 85.1143 12.1201 84.9385 11.6455C84.7686 11.1709 84.5107 10.7959 84.165 10.5205C83.8193 10.2451 83.4004 10.1074 82.9082 10.1074C82.4043 10.1074 81.9766 10.2451 81.625 10.5205C81.2793 10.7959 81.0186 11.1709 80.8428 11.6455C80.6729 12.1201 80.5879 12.6562 80.5879 13.2539ZM88.6012 8.45508H90.7984V10.0195H90.9391C91.1734 9.55664 91.5016 9.16113 91.9234 8.83301C92.3453 8.49902 92.9313 8.33203 93.6813 8.33203C94.4254 8.33203 95.0934 8.52246 95.6852 8.90332C96.2828 9.28418 96.7545 9.84375 97.1002 10.582C97.4459 11.3203 97.6188 12.2051 97.6188 13.2363C97.6188 14.2559 97.4488 15.1377 97.109 15.8818C96.7691 16.626 96.3004 17.1943 95.7027 17.5869C95.1109 17.9736 94.4371 18.1699 93.6813 18.1758C92.9488 18.1699 92.3658 18.0029 91.9322 17.6748C91.4986 17.3467 91.1676 16.9512 90.9391 16.4883H90.8512V21.5859H88.6012V8.45508ZM90.7984 13.2188C90.8043 13.8398 90.8951 14.3848 91.0709 14.8535C91.2467 15.3223 91.5045 15.6855 91.8443 15.9434C92.1842 16.2012 92.5914 16.3301 93.066 16.3301C93.5465 16.3301 93.9566 16.1982 94.2965 15.9346C94.6422 15.6709 94.9 15.3047 95.0699 14.8359C95.2457 14.3672 95.3336 13.8281 95.3336 13.2188C95.3336 12.2988 95.1373 11.5605 94.7447 11.0039C94.358 10.4473 93.7984 10.166 93.066 10.1602C92.3453 10.166 91.7887 10.4414 91.3961 10.9863C91.0035 11.5312 90.8043 12.2754 90.7984 13.2188ZM98.7766 8.45508H100.921V10.0723H101.044C101.243 9.52734 101.571 9.10254 102.029 8.79785C102.486 8.4873 103.03 8.33203 103.663 8.33203C104.302 8.33203 104.847 8.4873 105.298 8.79785C105.749 9.10254 106.066 9.52734 106.247 10.0723H106.353C106.564 9.53906 106.921 9.11719 107.425 8.80664C107.935 8.49023 108.532 8.33203 109.218 8.33203C109.81 8.33203 110.328 8.45801 110.774 8.70996C111.225 8.95605 111.573 9.3252 111.82 9.81738C112.066 10.3037 112.189 10.8926 112.189 11.584V18H109.956V11.9355C109.956 11.3672 109.804 10.9395 109.499 10.6523C109.2 10.3594 108.808 10.2129 108.321 10.2129C107.782 10.2129 107.358 10.3799 107.047 10.7139C106.737 11.0479 106.581 11.4902 106.581 12.041V18H104.402V11.8477C104.396 11.3555 104.243 10.96 103.945 10.6611C103.652 10.3623 103.265 10.2129 102.784 10.2129C102.462 10.2129 102.166 10.2979 101.897 10.4678C101.633 10.6318 101.422 10.8662 101.264 11.1709C101.106 11.4697 101.027 11.8125 101.027 12.1992V18H98.7766V8.45508ZM117.97 18.1934C117.02 18.1934 116.197 17.9941 115.5 17.5957C114.803 17.1914 114.266 16.6201 113.891 15.8818C113.516 15.1436 113.329 14.2793 113.329 13.2891C113.329 12.3105 113.516 11.4492 113.891 10.7051C114.266 9.95508 114.794 9.37207 115.473 8.95605C116.159 8.54004 116.95 8.33203 117.846 8.33203C118.655 8.33203 119.387 8.50781 120.044 8.85938C120.706 9.20508 121.23 9.73828 121.617 10.459C122.01 11.1797 122.206 12.0762 122.206 13.1484V13.8516H115.544C115.555 14.3848 115.661 14.8477 115.86 15.2402C116.065 15.627 116.346 15.9229 116.704 16.1279C117.067 16.333 117.489 16.4355 117.97 16.4355C118.45 16.4355 118.857 16.3477 119.191 16.1719C119.525 15.9902 119.768 15.75 119.921 15.4512H122.118C121.983 16.002 121.728 16.4854 121.353 16.9014C120.978 17.3115 120.501 17.6309 119.921 17.8594C119.346 18.082 118.696 18.1934 117.97 18.1934ZM120.061 12.3223C120.061 11.8945 119.968 11.5107 119.78 11.1709C119.598 10.8252 119.341 10.5557 119.007 10.3623C118.679 10.1689 118.304 10.0723 117.882 10.0723C117.448 10.0723 117.058 10.1748 116.713 10.3799C116.367 10.5791 116.095 10.8516 115.895 11.1973C115.696 11.543 115.582 11.918 115.553 12.3223H120.061ZM125.596 18H123.346V8.45508H125.491V10.0723H125.614C125.836 9.52734 126.188 9.10254 126.668 8.79785C127.155 8.4873 127.746 8.33203 128.444 8.33203C129.106 8.33203 129.683 8.47266 130.175 8.75391C130.667 9.03516 131.045 9.44531 131.309 9.98438C131.579 10.5234 131.713 11.168 131.713 11.918V18H129.481V12.2695C129.481 11.625 129.317 11.124 128.989 10.7666C128.661 10.4033 128.204 10.2246 127.618 10.2305C127.219 10.2246 126.868 10.3096 126.563 10.4854C126.258 10.6553 126.021 10.9072 125.851 11.2412C125.681 11.5693 125.596 11.959 125.596 12.4102V18ZM138.021 10.1777H136.141V15.1348C136.141 15.5801 136.237 15.876 136.431 16.0225C136.63 16.1689 136.911 16.2422 137.274 16.2422C137.526 16.2422 137.816 16.2305 138.145 16.207V18.0352C137.781 18.0938 137.351 18.123 136.853 18.123C136.278 18.123 135.769 18.0264 135.323 17.833C134.878 17.6396 134.529 17.3467 134.277 16.9541C134.025 16.5615 133.902 16.0781 133.908 15.5039V10.1777H132.537V8.45508H133.908V6.16992H136.141V8.45508H138.021V10.1777ZM149.847 8.77148C149.788 8.23242 149.545 7.81055 149.117 7.50586C148.696 7.20117 148.145 7.04883 147.465 7.04883C146.985 7.04883 146.566 7.11914 146.208 7.25977C145.857 7.40039 145.587 7.59668 145.4 7.84863C145.212 8.10059 145.118 8.3877 145.118 8.70996C145.118 9.19043 145.321 9.56543 145.725 9.83496C146.129 10.0986 146.654 10.3066 147.298 10.459L148.493 10.7754C149.589 11.0273 150.483 11.4463 151.174 12.0322C151.871 12.6123 152.22 13.4121 152.22 14.4316C152.22 15.1758 152.029 15.832 151.649 16.4004C151.268 16.9688 150.714 17.4111 149.988 17.7275C149.267 18.0381 148.405 18.1934 147.404 18.1934C146.419 18.1934 145.561 18.041 144.828 17.7363C144.102 17.4258 143.533 16.9746 143.123 16.3828C142.713 15.791 142.493 15.082 142.464 14.2559H144.714C144.767 14.8945 145.036 15.3838 145.523 15.7236C146.009 16.0635 146.63 16.2363 147.386 16.2422C147.884 16.2422 148.323 16.166 148.704 16.0137C149.091 15.8555 149.393 15.6387 149.61 15.3633C149.826 15.0879 149.935 14.7715 149.935 14.4141C149.929 13.9453 149.736 13.582 149.355 13.3242C148.974 13.0605 148.4 12.832 147.632 12.6387L146.191 12.2695C143.929 11.6777 142.798 10.5352 142.798 8.8418C142.798 8.10352 143 7.45312 143.404 6.89062C143.809 6.32227 144.365 5.88281 145.074 5.57227C145.783 5.25586 146.583 5.09766 147.474 5.09766C148.359 5.09766 149.144 5.25293 149.829 5.56348C150.521 5.87402 151.06 6.31055 151.446 6.87305C151.833 7.42969 152.032 8.0625 152.044 8.77148H149.847ZM154.766 21.5859C154.192 21.5742 153.805 21.5566 153.606 21.5332V19.7402C153.811 19.7578 154.043 19.7666 154.301 19.7666C154.359 19.7725 154.444 19.7754 154.555 19.7754C154.784 19.7695 154.971 19.7461 155.118 19.7051C155.264 19.6699 155.408 19.5732 155.549 19.415C155.689 19.2627 155.821 19.0254 155.944 18.7031L156.137 18.1934L152.657 8.45508H155.03L157.245 15.6621H157.35L159.565 8.45508H161.938L158.106 19.1602C157.825 19.9512 157.415 20.5518 156.876 20.9619C156.337 21.3721 155.634 21.5801 154.766 21.5859ZM168.159 11.1797C168.088 10.8164 167.907 10.5293 167.614 10.3184C167.327 10.1074 166.954 10.002 166.497 10.002C166.175 10.002 165.885 10.0488 165.627 10.1426C165.375 10.2363 165.176 10.3682 165.03 10.5381C164.889 10.708 164.819 10.9014 164.819 11.1182C164.819 11.376 164.924 11.5957 165.135 11.7773C165.352 11.959 165.698 12.1055 166.172 12.2168L167.789 12.5508C168.692 12.75 169.363 13.0635 169.802 13.4912C170.247 13.9131 170.473 14.4668 170.479 15.1523C170.479 15.75 170.312 16.2803 169.978 16.7432C169.644 17.2002 169.169 17.5576 168.554 17.8154C167.939 18.0674 167.221 18.1934 166.401 18.1934C165.2 18.1934 164.245 17.9385 163.536 17.4287C162.832 16.9189 162.422 16.2012 162.305 15.2754H164.59C164.655 15.6797 164.839 15.9844 165.144 16.1895C165.454 16.3945 165.873 16.4941 166.401 16.4883C166.946 16.4941 167.379 16.3945 167.702 16.1895C168.024 15.9844 168.188 15.7031 168.194 15.3457C168.188 15.0703 168.074 14.8418 167.851 14.6602C167.628 14.4785 167.28 14.3379 166.805 14.2383L165.276 13.9043C164.391 13.7227 163.72 13.4062 163.263 12.9551C162.806 12.5039 162.58 11.9355 162.586 11.25C162.586 10.6699 162.745 10.1602 163.061 9.7207C163.377 9.27539 163.826 8.93262 164.406 8.69238C164.992 8.45215 165.668 8.33203 166.436 8.33203C167.186 8.33203 167.839 8.44922 168.396 8.68359C168.958 8.91211 169.398 9.24023 169.714 9.66797C170.037 10.0957 170.227 10.5996 170.286 11.1797H168.159ZM176.348 10.1777H174.467V15.1348C174.467 15.5801 174.563 15.876 174.757 16.0225C174.956 16.1689 175.237 16.2422 175.601 16.2422C175.853 16.2422 176.143 16.2305 176.471 16.207V18.0352C176.107 18.0938 175.677 18.123 175.179 18.123C174.604 18.123 174.095 18.0264 173.649 17.833C173.204 17.6396 172.855 17.3467 172.604 16.9541C172.352 16.5615 172.229 16.0781 172.234 15.5039V10.1777H170.863V8.45508H172.234V6.16992H174.467V8.45508H176.348V10.1777ZM181.601 18.1934C180.652 18.1934 179.829 17.9941 179.131 17.5957C178.434 17.1914 177.898 16.6201 177.523 15.8818C177.148 15.1436 176.961 14.2793 176.961 13.2891C176.961 12.3105 177.148 11.4492 177.523 10.7051C177.898 9.95508 178.425 9.37207 179.105 8.95605C179.791 8.54004 180.582 8.33203 181.478 8.33203C182.287 8.33203 183.019 8.50781 183.675 8.85938C184.337 9.20508 184.862 9.73828 185.249 10.459C185.641 11.1797 185.837 12.0762 185.837 13.1484V13.8516H179.175C179.187 14.3848 179.293 14.8477 179.492 15.2402C179.697 15.627 179.978 15.9229 180.336 16.1279C180.699 16.333 181.121 16.4355 181.601 16.4355C182.082 16.4355 182.489 16.3477 182.823 16.1719C183.157 15.9902 183.4 15.75 183.552 15.4512H185.75C185.615 16.002 185.36 16.4854 184.985 16.9014C184.61 17.3115 184.132 17.6309 183.552 17.8594C182.978 18.082 182.328 18.1934 181.601 18.1934ZM183.693 12.3223C183.693 11.8945 183.599 11.5107 183.412 11.1709C183.23 10.8252 182.972 10.5557 182.638 10.3623C182.31 10.1689 181.935 10.0723 181.513 10.0723C181.08 10.0723 180.69 10.1748 180.344 10.3799C179.999 10.5791 179.726 10.8516 179.527 11.1973C179.328 11.543 179.213 11.918 179.184 12.3223H183.693ZM186.978 8.45508H189.122V10.0723H189.245C189.445 9.52734 189.773 9.10254 190.23 8.79785C190.687 8.4873 191.232 8.33203 191.864 8.33203C192.503 8.33203 193.048 8.4873 193.499 8.79785C193.95 9.10254 194.267 9.52734 194.448 10.0723H194.554C194.765 9.53906 195.122 9.11719 195.626 8.80664C196.136 8.49023 196.734 8.33203 197.419 8.33203C198.011 8.33203 198.529 8.45801 198.975 8.70996C199.426 8.95605 199.775 9.3252 200.021 9.81738C200.267 10.3037 200.39 10.8926 200.39 11.584V18H198.157V11.9355C198.157 11.3672 198.005 10.9395 197.7 10.6523C197.402 10.3594 197.009 10.2129 196.523 10.2129C195.984 10.2129 195.559 10.3799 195.248 10.7139C194.938 11.0479 194.782 11.4902 194.782 12.041V18H192.603V11.8477C192.597 11.3555 192.445 10.96 192.146 10.6611C191.853 10.3623 191.466 10.2129 190.986 10.2129C190.663 10.2129 190.367 10.2979 190.098 10.4678C189.834 10.6318 189.623 10.8662 189.465 11.1709C189.307 11.4697 189.228 11.8125 189.228 12.1992V18H186.978V8.45508Z" fill="#354165"/>
<path d="M11.5817 3.78098V12.0016L9.76443 10.931C6.53794 9.01921 4.53529 5.46333 4.53529 1.60156H3.2002V11.0074C3.2002 14.0663 4.90615 16.8957 7.61344 18.2339L11.6187 20.2222V12.0016L13.436 13.0722C16.6624 14.9839 18.6651 18.5398 18.6651 22.4016H20.0002V12.9957C20.0002 9.93685 18.2942 7.10744 15.587 5.76921L11.5817 3.78098Z" fill="#354165"/>
</svg>
