<svg width="30" height="30" viewBox="0 0 30 30" fill="none" xmlns="http://www.w3.org/2000/svg">
<circle cx="15" cy="15" r="3" stroke="#1A1F23" stroke-width="2"/>
<path d="M11.25 8.50507C11.931 8.11191 12.2869 7.43048 12.4714 6.87105C12.6365 6.37028 13.0754 5.95603 13.6027 5.95603L16.3974 5.95603C16.9247 5.95603 17.3635 6.37028 17.5287 6.87105C17.7132 7.43048 18.0691 8.11191 18.75 8.50507C19.4311 8.89826 20.1992 8.86571 20.7759 8.74575C21.2921 8.63838 21.8703 8.81126 22.1339 9.26783L23.5311 11.687C23.7948 12.1436 23.6555 12.7309 23.3044 13.1244C22.9122 13.5639 22.5001 14.2127 22.5001 14.999C22.5001 15.7854 22.9123 16.4343 23.3046 16.8738C23.6557 17.2672 23.795 17.8543 23.5314 18.3109L22.1338 20.7324C21.8702 21.1891 21.292 21.3621 20.7757 21.2547C20.199 21.1348 19.431 21.1023 18.75 21.4955C18.0691 21.8886 17.7132 22.57 17.5287 23.1295C17.3635 23.6302 16.9247 24.0445 16.3974 24.0445L13.6027 24.0445C13.0754 24.0445 12.6365 23.6302 12.4714 23.1295C12.2869 22.57 11.931 21.8886 11.25 21.4955C10.5691 21.1023 9.8011 21.1348 9.22438 21.2547C8.70808 21.3621 8.12984 21.1891 7.86623 20.7323L6.46867 18.3109C6.20511 17.8543 6.34446 17.2672 6.69554 16.8738C7.0878 16.4343 7.50006 15.7854 7.50006 14.999C7.50006 14.2127 7.08792 13.5639 6.69571 13.1244C6.34458 12.7309 6.20528 12.1436 6.46902 11.687L7.86613 9.26784C8.12982 8.81126 8.70794 8.63839 9.22414 8.74575C9.80088 8.86571 10.569 8.89826 11.25 8.50507Z" stroke="#1A1F23" stroke-width="2" stroke-linecap="round"/>
</svg>
